<svg xmlns="http://www.w3.org/2000/svg" xmlns:xlink="http://www.w3.org/1999/xlink" width="24" height="4848">

<title>intranet icon-library 1.4</title>

<!-- Icon Symbols -->

<symbol id="add">
	<path d="M12,3a9,9,0,1,0,9,9A9,9,0,0,0,12,3Zm0,16a7,7,0,1,1,7-7A7,7,0,0,1,12,19Z"/>
	<polygon points="13 8 11 8 11 11 8 11 8 13 11 13 11 16 13 16 13 13 16 13 16 11 13 11 13 8"/>
</symbol>

<symbol id="adjust">
		<path d="M6,9H4V7h2V5h4v6H6V9z M6,17h6v-2H6V17z M18,7h-6v2h6V7z M18,15v-2h-4v6h4v-2h2v-2H18z"/>
</symbol>

<symbol id="alert">
	<path d="M21.178,15.673c-0.383-0.738-1.146-1.248-2.033-1.248c-0.111,0-0.145-0.089-0.145-0.167C19,13.818,19,10,19,10
	c0-0.695-0.105-1.366-0.295-2C17.842,5.112,15.165,3,12,3S6.158,5.112,5.295,8C5.105,8.634,5,9.305,5,10c0,0,0,3.818,0,4.258
	c0,0.079-0.035,0.167-0.145,0.167c-0.887,0-1.65,0.51-2.033,1.248c-0.164,0.316-0.266,0.67-0.266,1.051
	C2.556,17.991,3.587,19,4.855,19C5,19,8.046,19,8.046,19c0.45,1.702,2,2.968,3.856,2.968c1.856,0,3.406-1.266,3.856-2.968
	c0,0,3.387,0,3.388,0c1.268,0,2.299-1.009,2.299-2.276C21.444,16.343,21.342,15.989,21.178,15.673z M11.901,19.968
	c-0.731,0-1.364-0.392-1.713-0.968h3.427C13.266,19.576,12.632,19.968,11.901,19.968z M19.444,17H4.556c0,0,0-0.209,0-0.276
	c0-0.165,0.134-0.299,0.299-0.299L4.87,16.42C5.336,16.388,5.77,16.24,6.142,16c0.236-0.153,0.44-0.345,0.617-0.562
	C6.848,15.329,7,15.057,7,14.544C7,13.655,7,10,7,10c0-2.757,2.243-5,5-5s5,2.243,5,5c0,0,0,3.655,0,4.544
	c0,0.513,0.152,0.785,0.241,0.894c0.177,0.217,0.381,0.409,0.617,0.562c0.372,0.24,0.806,0.388,1.272,0.42l0.015,0.005
	c0.165,0,0.299,0.134,0.299,0.299C19.444,16.791,19.444,17,19.444,17z"/>
</symbol>

<symbol id="book">
	<path d="M12,7.93L3,4.56V17.69l8.91,3.38L21,17.7V4.56ZM5,7.44l6,2.25v8.89L5,16.31V7.44ZM19,16.3l-6,2.23V9.69l6-2.25V16.3Z"/>
</symbol>

<symbol id="bookmark">
	<path d="M18,21H15.59L12,17.41,8.41,21H6V3H18V21Zm-6-6.41,4,4V5H8V18.59Z"/>
</symbol>

<symbol id="calendar">
	<path d="M17,6V4H15V6H9V4H7V6H4V20H20V6H17Zm1,12H6V12H18v6ZM6,10V8H18v2H6Z"/>
</symbol>

<symbol id="chart">
	<rect x="11" y="5" width="2" height="14"/>
	<rect x="6" y="13" width="2" height="6"/>
	<rect x="16" y="9" width="2" height="10"/>
</symbol>

<symbol id="chat">
	<path d="M17,22H14.59l-4-4H3V4H21V18H17v4ZM5,16h6.41L15,19.59V16h4V6H5V16Z"/>
</symbol>

<symbol id="check">
	<path d="M12,3a9,9,0,1,0,9,9A9,9,0,0,0,12,3Zm0,16a7,7,0,1,1,7-7A7,7,0,0,1,12,19Z"/>
	<polygon points="15.86 8.36 10.5 13.73 8.14 11.36 6.86 12.64 10.5 16.27 17.14 9.64 15.86 8.36"/>
</symbol>

<symbol id="checkmark">
	<polygon points="9 18.51 3.09 12.61 4.51 11.19 9 15.69 19.49 5.19 20.91 6.61 9 18.51"/>
</symbol>

<symbol id="class-book">
	<path d="M14,5a3,3,0,0,0-2,.78A3,3,0,0,0,10,5H3V19h7a1,1,0,0,1,1,1h2a1,1,0,0,1,1-1h7V5H14ZM10,17H5V7h5a1,1,0,0,1,1,1v9.18A3,3,0,0,0,10,17Zm9,0H14a3,3,0,0,0-1,.18V8a1,1,0,0,1,1-1h5V17Z"/>
</symbol>

<symbol id="class-book-flip">
	<path d="M17,5V3H16a5,5,0,0,0-4.32,2.52A3,3,0,0,0,10,5H3V19h7a1,1,0,0,1,1,1h2a1,1,0,0,1,1-1h7V5H17Zm-2,.17V14.1A5,5,0,0,0,13,15V8A3,3,0,0,1,15,5.17ZM10,17H5V7h5a1,1,0,0,1,1,1v9.18A3,3,0,0,0,10,17Zm9,0H14l-0.24,0A3,3,0,0,1,16,16h1V7h2V17Z"/>
</symbol>

<symbol id="clock">
	<path d="M12,3a9,9,0,1,0,9,9A9,9,0,0,0,12,3Zm0,16a7,7,0,1,1,7-7A7,7,0,0,1,12,19Z"/>
	<polygon points="13 7 11 7 11 13 16 13 16 11 13 11 13 7"/>
</symbol>

<symbol id="clear">
	<path d="M18.36,5.64A9,9,0,0,0,5.64,18.36,9,9,0,0,0,18.36,5.64ZM16.95,17a7,7,0,1,1,0-9.9A6.95,6.95,0,0,1,16.95,17Z"/>
	<polygon points="14.56 8.16 12 10.73 9.44 8.16 8.16 9.44 10.73 12 8.16 14.56 9.44 15.84 12 13.27 14.56 15.84 15.84 14.56 13.27 12 15.84 9.44 14.56 8.16"/>
</symbol>

<symbol id="close-panel">
	<path d="M21,19V5H3V19Zm-2-2H11V7h8ZM5,7H9V17H5Z"/>
	<polygon points="17 16 17 8 13 12 17 16"/>
</symbol>

<symbol id="cmd">
	<path d="M16.5,19h-1A2.5,2.5,0,0,1,13,16.5V15H11v1.5A2.5,2.5,0,0,1,8.5,19h-1A2.5,2.5,0,0,1,5,16.5v-1A2.5,2.5,0,0,1,7.5,13H9V11H7.5A2.5,2.5,0,0,1,5,8.5v-1A2.5,2.5,0,0,1,7.5,5h1A2.5,2.5,0,0,1,11,7.5V9h2V7.5A2.5,2.5,0,0,1,15.5,5h1A2.5,2.5,0,0,1,19,7.5v1A2.5,2.5,0,0,1,16.5,11H15v2h1.5A2.5,2.5,0,0,1,19,15.5v1A2.5,2.5,0,0,1,16.5,19ZM15,15v1.5a0.51,0.51,0,0,0,.5.5h1a0.51,0.51,0,0,0,.5-0.5v-1a0.51,0.51,0,0,0-.5-0.5H15ZM7.5,15a0.51,0.51,0,0,0-.5.5v1a0.51,0.51,0,0,0,.5.5h1A0.51,0.51,0,0,0,9,16.5V15H7.5ZM11,13h2V11H11v2Zm4-4h1.5A0.51,0.51,0,0,0,17,8.5v-1A0.51,0.51,0,0,0,16.5,7h-1a0.51,0.51,0,0,0-.5.5V9ZM7.5,7a0.51,0.51,0,0,0-.5.5v1a0.51,0.51,0,0,0,.5.5H9V7.5A0.51,0.51,0,0,0,8.5,7h-1Z"/>
</symbol>

<symbol id="cog">
	<path d="M12.072,23c-1.554,0-2.817-1.264-2.817-2.818c-0.005-0.265-0.134-0.444-0.328-0.516c-0.245-0.105-0.463-0.067-0.609,0.077
		c-1.143,1.144-2.983,1.097-4.034,0.046c-0.531-0.531-0.825-1.239-0.825-1.993c0-0.754,0.294-1.462,0.827-1.994
		c0.189-0.193,0.229-0.41,0.146-0.599c-0.083-0.192-0.262-0.311-0.461-0.312H3.818C2.265,14.891,1,13.627,1,12.073
		s1.265-2.818,2.818-2.818C4.08,9.25,4.264,9.119,4.334,8.929C4.44,8.681,4.401,8.464,4.258,8.317
		c-0.572-0.572-0.873-1.298-0.873-2.04c0-0.741,0.301-1.468,0.825-1.993c1.059-1.059,2.929-1.06,3.988-0.001
		c0.192,0.19,0.407,0.229,0.598,0.147c0.059-0.026,0.119-0.046,0.181-0.06c0.127-0.092,0.204-0.24,0.205-0.401V3.818
		C9.182,2.264,10.446,1,12,1s2.818,1.264,2.818,2.818c0.001,0.277,0.12,0.457,0.304,0.536c0.195,0.086,0.414,0.047,0.561-0.096
		c1.143-1.144,2.983-1.097,4.034-0.046c0.531,0.531,0.825,1.239,0.825,1.993c0,0.754-0.294,1.462-0.827,1.994
		c-0.189,0.193-0.229,0.41-0.146,0.599c0.025,0.058,0.046,0.118,0.06,0.179c0.093,0.126,0.241,0.205,0.402,0.205h0.15
		C21.735,9.182,23,10.446,23,12s-1.265,2.818-2.818,2.818c-0.277,0.001-0.456,0.12-0.535,0.303c-0.001,0.003-0.003,0.007-0.004,0.01
		c-0.083,0.188-0.044,0.404,0.1,0.551c0.572,0.572,0.873,1.298,0.873,2.04c0,0.741-0.301,1.468-0.825,1.993
		c-1.059,1.059-2.93,1.059-3.988,0.001c-0.193-0.192-0.409-0.23-0.598-0.147c-0.193,0.083-0.312,0.263-0.313,0.463v0.149
		C14.891,21.736,13.626,23,12.072,23z M8.68,17.6c0.338,0,0.676,0.07,0.997,0.212c0.911,0.333,1.554,1.231,1.578,2.264
		c0,0.008,0,0.098,0,0.105c0,0.451,0.366,0.818,0.817,0.818s0.818-0.367,0.818-0.818v-0.154c0.005-1.002,0.6-1.9,1.516-2.292
		c0.93-0.412,2.013-0.215,2.748,0.505c0.432,0.431,0.916,0.369,1.22,0.062c0.153-0.153,0.241-0.365,0.241-0.58
		s-0.088-0.426-0.24-0.579c-0.78-0.796-0.977-1.876-0.564-2.815c0.394-0.913,1.29-1.506,2.285-1.51C20.633,12.818,21,12.451,21,12
		s-0.367-0.818-0.818-0.818h-0.154c-1.002-0.004-1.899-0.599-2.292-1.515C17.7,9.585,17.677,9.5,17.664,9.413
		c-0.311-0.893-0.095-1.881,0.575-2.566c0.218-0.217,0.303-0.423,0.303-0.642s-0.085-0.425-0.24-0.579
		c-0.305-0.307-0.854-0.306-1.157-0.001c-0.798,0.782-1.882,0.979-2.821,0.563c-0.907-0.389-1.502-1.287-1.505-2.284
		C12.818,3.367,12.451,3,12,3s-0.818,0.367-0.818,0.818v0.154c-0.003,1.001-0.599,1.899-1.516,2.292
		C9.585,6.299,9.5,6.323,9.413,6.335C8.518,6.646,7.53,6.43,6.846,5.76c-0.431-0.431-0.914-0.369-1.22-0.062
		c-0.153,0.153-0.241,0.365-0.241,0.58s0.088,0.426,0.24,0.579c0.781,0.798,0.978,1.881,0.562,2.821
		c-0.332,0.911-1.23,1.553-2.264,1.577c-0.008,0-0.098,0-0.105,0C3.367,11.254,3,11.622,3,12.073s0.367,0.818,0.818,0.818h0.154
		c1.001,0.003,1.899,0.598,2.292,1.515c0.41,0.932,0.214,2.014-0.504,2.748c-0.218,0.217-0.303,0.423-0.303,0.642
		s0.085,0.425,0.24,0.579c0.305,0.307,0.854,0.306,1.157,0.001C7.381,17.861,8.029,17.6,8.68,17.6z M18.728,14.727h0.01H18.728z
		 M12,16c-2.206,0-4-1.794-4-4s1.794-4,4-4s4,1.794,4,4S14.206,16,12,16z M12,10c-1.103,0-2,0.897-2,2s0.897,2,2,2s2-0.897,2-2
		S13.103,10,12,10z"/>
</symbol>

<symbol id="columns">
	<path d="M13,4V20h7V4H13Zm5,14H15V6h3V18Z"/>
	<path d="M4,20h7V4H4V20ZM6,6H9V18H6V6Z"/>
</symbol>

<symbol id="connector">
	<path d="M19,3H13V9h2v2H7v4H5v6h6V15H9V13h8V9h2ZM9,19H7V17H9ZM17,7H15V5h2Z"/>
</symbol>

<symbol id="copy">
	<polygon points="15 4 4 4 4 15 6 15 6 6 15 6 15 4"/>
	<rect x="17" y="17" width="2" height="2"/>
	<rect x="17" y="11" width="2" height="2"/>
	<rect x="17" y="14" width="2" height="2"/>
	<rect x="8" y="17" width="2" height="2"/>
	<rect x="11" y="17" width="2" height="2"/>
	<rect x="14" y="17" width="2" height="2"/>
	<rect x="8" y="14" width="2" height="2"/>
	<rect x="8" y="11" width="2" height="2"/>
	<rect x="8" y="8" width="2" height="2"/>
	<rect x="11" y="8" width="2" height="2"/>
	<rect x="17" y="8" width="2" height="2"/>
	<rect x="14" y="8" width="2" height="2"/>
</symbol>

<symbol id="crop">
	<path d="M16,8V4H14V8H8v6H4v2H8v4h2V16h6V10h4V8Zm-2,6H10V10h4Z"/>
</symbol>

<symbol id="cut">
	<path d="M20.41,5H17.59L12,10.59,10.57,9.15A3.46,3.46,0,0,0,11,7.5,3.5,3.5,0,1,0,7.5,11a3.46,3.46,0,0,0,1.65-.43L10.59,12,9.15,13.43A3.46,3.46,0,0,0,7.5,13,3.5,3.5,0,1,0,11,16.5a3.46,3.46,0,0,0-.43-1.65ZM5.8,7.5A1.7,1.7,0,1,1,7.5,9.2,1.7,1.7,0,0,1,5.8,7.5ZM7.5,18.2a1.7,1.7,0,1,1,1.7-1.7A1.7,1.7,0,0,1,7.5,18.2Z"/>
	<polygon points="13.29 14.71 17.59 19 20.41 19 14.71 13.29 13.29 14.71"/>
</symbol>

<symbol id="dashboard">
	<path d="M12,3a9,9,0,1,0,9,9A9,9,0,0,0,12,3Zm0,2a7,7,0,0,1,6.71,9H13.39l1.67-5H12.95l-1.67,5h-6A7,7,0,0,1,12,5Zm0,14a7,7,0,0,1-5.74-3H17.74A7,7,0,0,1,12,19Z"/>
</symbol>

<symbol id="day">
	<path d="M12,9.8A2.2,2.2,0,1,1,9.8,12,2.2,2.2,0,0,1,12,9.8M12,8a4,4,0,1,0,4,4,4,4,0,0,0-4-4h0Z"/>
	<rect x="2" y="11" width="4" height="2"/>
	<rect x="18" y="11" width="4" height="2"/>
	<rect x="11" y="2" width="2" height="4"/>
	<rect x="11" y="18" width="2" height="4"/>
	<rect x="5.34" y="4.34" width="2" height="4" transform="translate(-2.63 6.34) rotate(-45)"/>
	<rect x="16.66" y="15.66" width="2" height="4" transform="translate(-7.31 17.67) rotate(-45.02)"/>
	<rect x="15.66" y="5.34" width="4" height="2" transform="translate(0.68 14.33) rotate(-44.97)"/>
	<rect x="4.34" y="16.66" width="4" height="2" transform="translate(-10.63 9.66) rotate(-45)"/>
</symbol>

<symbol id="deny">
	<path d="M12,3a9,9,0,1,0,9,9A9,9,0,0,0,12,3Zm0,2a7,7,0,0,1,4.18,1.4L6.4,16.18A7,7,0,0,1,12,5Zm0,14a7,7,0,0,1-4.18-1.4L17.6,7.82A7,7,0,0,1,12,19Z"/>
</symbol>

<symbol id="desktop">
	<path d="M21,17V5H3V17h8v2H8v2h8V19H13V17h8ZM5,7H19v8H5V7Z"/>
</symbol>

<symbol id="device">
	<circle cx="12" cy="16" r="1.5"/>
	<path d="M5,3V21H19V3H5ZM17,19H7V5H17V19Z"/>
</symbol>

<symbol id="dialogue">
	<path d="M17,7V4H3V15H5v3H7.41l3-3H17V9h2v7H17v2.59L14.41,16H11v2h2.59l3,3H19V18h2V7H17Zm-2,6H9.59L7,15.59V13H5V6H15v7Z"/>
</symbol>

<symbol id="dimension">
	<polygon points="20.5 16 16 11.5 16 15 9 15 9 8 12.5 8 8 3.5 3.5 8 7 8 7 15 3 15 3 17 7 17 7 21 9 21 9 17 16 17 16 20.5 20.5 16"/>
</symbol>

<symbol id="download">
	<polygon points="18.91 10.51 17.49 9.09 13 13.59 13 4 11 4 11 13.59 6.51 9.09 5.09 10.51 12 17.41 18.91 10.51"/>
	<polygon points="17 17 17 19 7 19 7 17 5 17 5 21 19 21 19 17 17 17"/>
</symbol>

<symbol id="drag">
	<rect x="11" y="4" width="2" height="16"/>
</symbol>

<symbol id="drag-active">
	<rect x="13" y="4" width="2" height="16"/>
	<rect x="9" y="4" width="2" height="16"/>
</symbol>

<symbol id="duplicate">
	<path d="M8,8V19H19V8H8Zm9,9H10V10h7v7Z"/>
	<polygon points="15 4 4 4 4 15 6 15 6 6 15 6 15 4"/>
</symbol>

<symbol id="emoticon">
	<path d="M12,21a9,9,0,1,1,9-9A9,9,0,0,1,12,21ZM12,5a7,7,0,1,0,7,7A7,7,0,0,0,12,5Z"/>
	<path d="M7.42,14a5,5,0,0,0,9.16,0Z"/>
	<circle cx="9" cy="10" r="1.5"/>
	<circle cx="15" cy="10" r="1.5"/>
</symbol>

<symbol id="empty">
	<path d="M12,21a9,9,0,1,1,9-9A9,9,0,0,1,12,21ZM12,5a7,7,0,1,0,7,7A7,7,0,0,0,12,5Z"/>
</symbol>

<symbol id="event-available">
	<polygon points="16.14 10.14 14.86 8.86 10.5 13.23 9.14 11.86 7.86 13.14 10.5 15.77 16.14 10.14"/>
	<path d="M17,5V3H15V5H9V3H7V5H4V20H20V5H17Zm1,13H6V7H18V18Z"/>
</symbol>

<symbol id="error">
	<path d="M12,3a9,9,0,1,0,9,9A9,9,0,0,0,12,3Zm0,16a7,7,0,1,1,7-7A7,7,0,0,1,12,19Z"/>
	<rect x="11" y="8" width="2" height="5"/>
	<rect x="11" y="14.5" width="2" height="1.5"/>
</symbol>

<symbol id="excused">
	<polygon points="16 8 16 6 8 6 8 18 16 18 16 16 10 16 10 13 15 13 15 11 10 11 10 8 16 8"/>
</symbol>

<symbol id="exit">
	<polygon points="11 16.5 15.5 12 11 7.5 11 11 4 11 4 13 11 13 11 16.5"/>
	<polygon points="4 4 4 9 6 9 6 6 18 6 18 18 6 18 6 15 4 15 4 20 20 20 20 4 4 4"/>
</symbol>

<symbol id="favorite">
	<path d="M19.71,5.29a4.62,4.62,0,0,0-6.41,0L12,6.59,10.71,5.29a4.54,4.54,0,0,0-6.41,6.41L12,19.41l7.71-7.71A4.62,4.62,0,0,0,19.71,5.29ZM12,16.59L5.71,10.29a2.63,2.63,0,0,1,0-3.59,2.72,2.72,0,0,1,3.59,0L12,9.41l2.71-2.71a2.72,2.72,0,0,1,3.59,0,2.63,2.63,0,0,1,0,3.59Z"/>
</symbol>

<symbol id="logout">
	<polygon points="17 16.5 21.5 12 17 7.5 17 11 10 11 10 13 17 13 17 16.5"/>
	<polygon points="15 20 15 15 13 15 13 18 6 18 6 6 13 6 13 9 15 9 15 4 4 4 4 20 15 20"/>
</symbol>

<symbol id="filter">
	<rect x="4" y="7" width="16" height="2"/>
	<rect x="10" y="15" width="4" height="2"/>
	<rect x="7" y="11" width="10" height="2"/>
</symbol>

<symbol id="flag">
	<path d="M19,3H5V21H7V13H19V3Zm-2,8H7V5H17v6Z"/>
</symbol>

<symbol id="full">
	<circle cx="12" cy="12" r="9"/>
</symbol>

<symbol id="fullscreen">
	<polygon points="20 4 14 4 16.29 6.29 13.09 9.49 14.51 10.91 17.71 7.71 20 10 20 4"/>
	<polygon points="9.49 13.09 6.29 16.29 4 14 4 20 10 20 7.71 17.71 10.91 14.51 9.49 13.09"/>
</symbol>



	<symbol id="funnel">
		<path d="M10.07673,11.55657a.99645.99645,0,0,1,.26247.67444v7.34245a.499.499,0,0,0,.84887.35549l2.04824-2.34726c.2741-.32891.42526-.49173.42526-.8173V12.23268a1.00452,1.00452,0,0,1,.26247-.67446L19.8013,5.18094a.748.748,0,0,0-.54985-1.2542H4.74929a.74746.74746,0,0,0-.54985,1.2542Z"/>
	</symbol>


<symbol id="grid">
	<path d="M4,11h7V4H4v7ZM6,6H9V9H6V6Z"/>
	<path d="M13,11h7V4H13v7Zm2-5h3V9H15V6Z"/>
	<path d="M13,20h7V13H13v7Zm2-5h3v3H15V15Z"/>
	<path d="M4,20h7V13H4v7Zm2-5H9v3H6V15Z"/>
</symbol>

<symbol id="group">
	<path d="M21,12.41l-0.52-.28A12.15,12.15,0,0,0,15,11H13v2h2a11.61,11.61,0,0,1,4,.66V16H15V14.41l-0.52-.28A12.15,12.15,0,0,0,9,13a12.15,12.15,0,0,0-5.48,1.12L3,14.41V20H15V18h6V12.41ZM13,18H5V15.66A11.6,11.6,0,0,1,9,15a11.61,11.61,0,0,1,4,.66V18Z"/>
	<path d="M9,12a3,3,0,0,0,3-3V8A3,3,0,0,0,6,8V9A3,3,0,0,0,9,12ZM7.8,8a1.2,1.2,0,0,1,2.4,0V9A1.2,1.2,0,1,1,7.8,9V8Z"/>
	<path d="M16,10a3,3,0,0,0,3-3V6a3,3,0,0,0-6,0V7A3,3,0,0,0,16,10ZM14.8,6a1.2,1.2,0,0,1,2.4,0V7a1.2,1.2,0,0,1-2.4,0V6Z"/>
</symbol>

<symbol id="group-add">
	<polygon points="6 7 4 7 4 5 2 5 2 7 0 7 0 9 2 9 2 11 4 11 4 9 6 9 6 7"/>
	<path d="M23,12.41l-0.52-.28A12.15,12.15,0,0,0,17,11H15v2h2a11.61,11.61,0,0,1,4,.66V16H17V14.41l-0.52-.28A12.15,12.15,0,0,0,11,13a12.15,12.15,0,0,0-5.48,1.12L5,14.41V20H17V18h6V12.41ZM15,18H7V15.66A11.6,11.6,0,0,1,11,15a11.61,11.61,0,0,1,4,.66V18Z"/>
	<path d="M11,12a3,3,0,0,0,3-3V8A3,3,0,0,0,8,8V9A3,3,0,0,0,11,12ZM9.8,8a1.2,1.2,0,0,1,2.4,0V9A1.2,1.2,0,1,1,9.8,9V8Z"/>
	<path d="M18,10a3,3,0,0,0,3-3V6a3,3,0,0,0-6,0V7A3,3,0,0,0,18,10ZM16.8,6a1.2,1.2,0,0,1,2.4,0V7a1.2,1.2,0,0,1-2.4,0V6Z"/>
</symbol>

<symbol id="half">
	<path d="M12,3a9,9,0,1,0,9,9A9,9,0,0,0,12,3ZM5,12a7,7,0,0,1,7-7V19A7,7,0,0,1,5,12Z"/>
</symbol>

<symbol id="help">
	<path d="M12,3a9,9,0,1,0,9,9A9,9,0,0,0,12,3Zm0,16a7,7,0,1,1,7-7A7,7,0,0,1,12,19Z"/>
	<rect x="11.1" y="15.5" width="1.8" height="1.5"/>
	<path d="M10,7.95A2.88,2.88,0,0,0,9.1,10h1.8a1.09,1.09,0,0,1,.32-0.78,1.13,1.13,0,0,1,1.56,0,1.1,1.1,0,0,1,0,1.55c-0.35.36-1.39,1.31-1.39,1.31l-0.29.27V14h1.8V13.14c0.34-.32.9-0.85,1.15-1.09a2.9,2.9,0,0,0,0-4.1A3,3,0,0,0,10,7.95Z"/>
</symbol>

<symbol id="home">
	<path d="M20.91,11.49L12,2.59,3.09,11.49l1.41,1.41L6,11.41V20H18V11.41l1.49,1.49ZM16,18H8V9.41l4-4,4,4V18Z"/>
</symbol>

<symbol id="hourglass">
	<path d="M17,21H7V14.59L9.59,12,7,9.41V3H17V9.41L14.41,12,17,14.59V21ZM9,19h6V15.41l-3-3-3,3V19ZM9,8.59l3,3,3-3V5H9V8.59Z"/>
</symbol>

<symbol id="info">
	<path d="M12,3a9,9,0,1,0,9,9A9,9,0,0,0,12,3Zm0,16a7,7,0,1,1,7-7A7,7,0,0,1,12,19Z"/>
	<rect x="11" y="11" width="2" height="5"/>
	<rect x="11" y="8" width="2" height="1.5"/>
</symbol>

<symbol id="insert-file">
	<path d="M18,11H9v2h9a3,3,0,0,0,0-6H8A5,5,0,0,0,8,17H19V15H8A3,3,0,0,1,8,9H18A1,1,0,0,1,18,11Z"/>
</symbol>

<symbol id="insert-m">
	<rect x="4" y="6" width="8" height="2"/>
	<rect x="4" y="16" width="8" height="2"/>
	<rect x="4" y="11" width="10" height="2"/>
	<polygon points="16.5 12 21 16.5 21 7.5 16.5 12"/>
</symbol>

<symbol id="insert-n">
	<rect x="4" y="11" width="8" height="2"/>
	<rect x="4" y="16" width="8" height="2"/>
	<rect x="4" y="6" width="10" height="2"/>
	<polygon points="16.5 7 21 11.5 21 2.5 16.5 7"/>
</symbol>

<symbol id="insert-s">
	<rect x="4" y="6" width="8" height="2"/>
	<rect x="4" y="11" width="8" height="2"/>
	<rect x="4" y="16" width="10" height="2"/>
	<polygon points="16.5 17 21 21.5 21 12.5 16.5 17"/>
</symbol>

<symbol id="interruption">
	<polygon points="14.39 17 16.39 11 10.39 11 12.39 5 10.28 5 7.61 13 13.61 13 12.28 17 9 17 13 21 17 17 14.39 17"/>
</symbol>

<symbol id="kpi">
	<polygon points="12 4.5 7.5 9 16.5 9 12 4.5"/>
	<polygon points="12 19.5 16.5 15 7.5 15 12 19.5"/>
</symbol>

<symbol id="language">
	<path d="M12,3a9,9,0,1,0,9,9A9,9,0,0,0,12,3Zm5.74,5H15.52a12.68,12.68,0,0,0-.88-2.48A7,7,0,0,1,17.74,8ZM19,12a7,7,0,0,1-.29,2H15.88A17.15,17.15,0,0,0,16,12a17.15,17.15,0,0,0-.12-2h2.83A7,7,0,0,1,19,12Zm-6.83,7H11.83a7.28,7.28,0,0,1-1.48-3h3.31A7.28,7.28,0,0,1,12.17,19ZM9.94,14a15.06,15.06,0,0,1-.14-2,15.06,15.06,0,0,1,.14-2h4.11a15.06,15.06,0,0,1,.14,2,15.06,15.06,0,0,1-.14,2H9.94ZM5,12a7,7,0,0,1,.29-2H8.12a16.72,16.72,0,0,0,0,4H5.29A7,7,0,0,1,5,12Zm6.83-7h0.34a7.28,7.28,0,0,1,1.48,3H10.35A7.28,7.28,0,0,1,11.83,5Zm-2.47.51A12.68,12.68,0,0,0,8.48,8H6.26A7,7,0,0,1,9.36,5.52ZM6.26,16H8.48a12.67,12.67,0,0,0,.88,2.48A7,7,0,0,1,6.26,16Zm8.38,2.48A12.67,12.67,0,0,0,15.52,16h2.22A7,7,0,0,1,14.64,18.48Z"/>
</symbol>

<symbol id="laptop">
	<path d="M19,13.59V5H5v8.59l-2,2V19H21V15.59ZM7,7H17v6H7V7ZM19,17H5V16.41L6.41,15H17.59L19,16.41V17Z"/>
</symbol>

<symbol id="lock">
	<path d="M16,10V9A4,4,0,0,0,8,9v1H5V20H19V10H16ZM10,9a2,2,0,0,1,4,0v1H10V9Zm7,9H7V12H17v6Z"/>
</symbol>

<symbol id="mail">
	<path d="M3,5V19H21V5H3ZM17.59,7L12,12.59,6.41,7H17.59ZM5,17V8.41l7,7,7-7V17H5Z"/>
</symbol>

<symbol id="map">
	<path d="M15,4.94l-6,2L3,4.52V17.67l5.88,2.39,6.09-2,6,2.41V7.32ZM10,8.72l4-1.33v8.89l-4,1.32V8.72ZM5,7.48l3,1.2v8.87L5,16.33V7.48Zm14,10-3-1.2V7.48l3,1.2v8.85Z"/>
</symbol>

<symbol id="maximize">
	<polygon points="4 10 6 10 6 6 10 6 10 4 4 4 4 10"/>
	<polygon points="6 14 4 14 4 20 10 20 10 18 6 18 6 14"/>
	<polygon points="18 18 14 18 14 20 20 20 20 14 18 14 18 18"/>
	<polygon points="14 4 14 6 18 6 18 10 20 10 20 4 14 4"/>
</symbol>

<symbol id="minimize">
	<polygon points="4 16 8 16 8 20 10 20 10 14 4 14 4 16"/>
	<polygon points="8 8 4 8 4 10 10 10 10 4 8 4 8 8"/>
	<polygon points="16 8 16 4 14 4 14 10 20 10 20 8 16 8"/>
	<polygon points="14 20 16 20 16 16 20 16 20 14 14 14 14 20"/>
</symbol>

<symbol id="minus">
	<rect x="4" y="11" width="16" height="2"/>
</symbol>

<symbol id="note">
	<path d="M20,20H4V4H20V20ZM6,18H18V6H6V18Z"/>
	<rect x="8" y="9" width="8" height="2"/>
	<rect x="8" y="13" width="6" height="2"/>
</symbol>

<symbol id="note-fill">
	<path d="M6,6V18H18V6H6Zm8,9H8V13h6v2Zm2-4H8V9h8v2Z"/>
</symbol>

<symbol id="open-in-browser">
	<polygon points="16 16 12 12 8 16 11 16 11 22 13 22 13 16 16 16"/>
	<polygon points="3 5 3 20 9 20 9 18 5 18 5 9 19 9 19 18 15 18 15 20 21 20 21 5 3 5"/>
</symbol>

<symbol id="open-in-new">
	<polygon points="13 5 15.29 7.29 11.09 11.49 12.51 12.91 16.71 8.71 19 11 19 5 13 5"/>
	<polygon points="17 17 7 17 7 7 11 7 11 5 5 5 5 19 19 19 19 13 17 13 17 17"/>
</symbol>

<symbol id="open-panel">
	<path d="M21,19V5H3V19Zm-2-2H11V7h8ZM5,7H9V17H5Z"/>
	<polygon points="17 12 13 8 13 16 17 12"/>
</symbol>

<symbol id="paste">
	<path d="M15,4H4V15H15V4Zm-2,9H6V6h7v7Z"/>
	<rect x="17" y="8" width="2" height="2"/>
	<rect x="17" y="11" width="2" height="2"/>
	<rect x="17" y="14" width="2" height="2"/>
	<rect x="8" y="17" width="2" height="2"/>
	<rect x="14" y="17" width="2" height="2"/>
	<rect x="11" y="17" width="2" height="2"/>
	<rect x="17" y="17" width="2" height="2"/>
</symbol>

<symbol id="pause">
	<path d="M12,3a9,9,0,1,0,9,9A9,9,0,0,0,12,3Zm0,16a7,7,0,1,1,7-7A7,7,0,0,1,12,19Z"/>
	<rect x="9" y="8" width="2" height="8"/>
	<rect x="13" y="8" width="2" height="8"/>
</symbol>

<symbol id="pencil">
	<path d="M15,3.59l-11,11V20H9.41l11-11ZM17.59,9L9.43,17.16,6.84,14.57,15,6.41ZM6,16.27L7.73,18H6V16.27Z"/>
</symbol>

<symbol id="person">
	<path d="M12,12A4,4,0,0,1,8,8V7a4,4,0,0,1,8,0V8A4,4,0,0,1,12,12Zm0-7a2,2,0,0,0-2,2V8a2,2,0,0,0,4,0V7A2,2,0,0,0,12,5Z"/>
	<path d="M20,20H4V15.46l0.45-.3A14.78,14.78,0,0,1,12,13a14.78,14.78,0,0,1,7.55,2.17L20,15.46V20ZM6,18H18V16.57A13,13,0,0,0,12,15a12.94,12.94,0,0,0-6,1.57V18Z"/>
</symbol>

<symbol id="person-add">
	<path d="M20,20H4V15.46l0.45-.3A14.78,14.78,0,0,1,12,13a14.78,14.78,0,0,1,7.55,2.17L20,15.46V20ZM6,18H18V16.57A13,13,0,0,0,12,15a12.94,12.94,0,0,0-6,1.57V18Z"/>
	<path d="M12,12A4,4,0,0,1,8,8V7a4,4,0,0,1,8,0V8A4,4,0,0,1,12,12Zm0-7a2,2,0,0,0-2,2V8a2,2,0,0,0,4,0V7A2,2,0,0,0,12,5Z"/>
	<polygon points="6 7 4 7 4 5 2 5 2 7 0 7 0 9 2 9 2 11 4 11 4 9 6 9 6 7"/>
</symbol>

<symbol id="pin">
	<path d="M16,12V3H8v9H6v2h5v7h2V14h5V12H16Zm-6,0V5h4v7H10Z"/>
</symbol>

<symbol id="place">
	<path d="M12,3a7,7,0,0,0-7,7,6.92,6.92,0,0,0,2,4.92l5,5.58L17,15A7,7,0,0,0,12,3Zm3.5,10.58L12,17.5l-3.54-4A5,5,0,1,1,15.5,13.58Z"/>
	<circle cx="12" cy="10" r="2"/>
</symbol>

<symbol id="play">
	<path d="M7,19.87V4.13L18.8,12Zm2-12v8.26L15.2,12Z"/>
</symbol>

<symbol id="plus">
	<polygon points="20 11 13 11 13 4 11 4 11 11 4 11 4 13 11 13 11 20 13 20 13 13 20 13 20 11"/>
</symbol>

<symbol id="preview">
	<path d="M12,19c-5.55,0-8.76-6.29-8.89-6.55L2.88,12l0.22-.45C3.24,11.29,6.45,5,12,5s8.76,6.29,8.89,6.55L21.12,12l-0.22.45C20.76,12.71,17.55,19,12,19ZM5.15,12c0.77,1.3,3.28,5,6.85,5s6.08-3.7,6.85-5C18.08,10.7,15.57,7,12,7S5.92,10.7,5.15,12Z"/>
	<path d="M12,10.8A1.2,1.2,0,1,1,10.8,12,1.2,1.2,0,0,1,12,10.8M12,9a3,3,0,1,0,3,3,3,3,0,0,0-3-3h0Z"/>
</symbol>

<symbol id="print">
	<path d="M17,7V3H7V7H3V19H7v2H17V19h4V7H17ZM9,5h6V7H9V5Zm6,14H9V15h6v4Zm4-2H17V13H7v4H5V9H19v8Z"/>
</symbol>

<symbol id="quarter">
	<path d="M12,3a9,9,0,1,0,9,9A9,9,0,0,0,12,3Zm0,16A7,7,0,0,1,12,5v7h7A7,7,0,0,1,12,19Z"/>
</symbol>

<symbol id="redo">
	<path d="M20.5,10,16,5.5V9H6a3,3,0,0,0-3,3v2a3,3,0,0,0,3,3h4V15H6a1,1,0,0,1-1-1V12a1,1,0,0,1,1-1H16v3.5Z"/>
</symbol>

<symbol id="refresh">
	<path d="M21,10V4L18.83,6.17A9,9,0,1,0,20.77,14H18.69a7,7,0,1,1-1.29-6.41L15,10h6Z"/>
</symbol>

<symbol id="remove">
	<path d="M12,3a9,9,0,1,0,9,9A9,9,0,0,0,12,3Zm0,16a7,7,0,1,1,7-7A7,7,0,0,1,12,19Z"/>
	<rect x="8" y="11" width="8" height="2"/>
</symbol>

<symbol id="restore">
	<polygon points="11 7 11 13 16 13 16 11 13 11 13 7 11 7"/>
	<path d="M12,3A9,9,0,0,0,5.17,6.17L3,4v6H9L6.59,7.59A7,7,0,1,1,5.31,14H3.23A9,9,0,1,0,12,3Z"/>
</symbol>


	<symbol id="restore-trash">
		<defs>
			<style>
				.a {
				fill: none;
				stroke: #000;
				stroke-miterlimit: 10;
				stroke-width: 2px;
				}
			</style>
		</defs>
		<polygon points="9,12 12,9 15,12 	"/>
		<path d="M19,6h-4V3H9v3H5v2h1v13h12V8h1V6z M11,5h2v1h-2V5z M16,19H8V8h8V19z"/>
		<rect x="11" y="12" width="2" height="5"/>
	</symbol>



	<symbol id="rotate-ccw">
	<path d="M3.24,14a9,9,0,0,0,1.61,3.45L6.29,16a7,7,0,0,1-1-2H3.24Z"/>
	<path d="M12,3A9,9,0,0,0,5.17,6.17L3,4v6H9L6.59,7.59A7,7,0,0,1,17.71,16l1.44,1.44A9,9,0,0,0,12,3Z"/>
	<path d="M13.2,18.88v2a8.94,8.94,0,0,0,4.24-1.76L16,17.71A7,7,0,0,1,13.2,18.88Z"/>
	<path d="M6.56,19.14A8.94,8.94,0,0,0,10.8,20.9v-2A7,7,0,0,1,8,17.71Z"/>
</symbol>

<symbol id="rotate-cw">
	<path d="M18.83,6.17a9,9,0,0,0-14,11.28L6.29,16A6.93,6.93,0,0,1,5,12,7,7,0,0,1,17.41,7.59L15,10h6V4Z"/>
	<path d="M17.71,16l1.44,1.44A9,9,0,0,0,20.76,14H18.69A7,7,0,0,1,17.71,16Z"/>
	<path d="M6.56,19.14A8.94,8.94,0,0,0,10.8,20.9v-2A7,7,0,0,1,8,17.71Z"/>
	<path d="M13.2,18.88v2a8.94,8.94,0,0,0,4.24-1.76L16,17.71A7,7,0,0,1,13.2,18.88Z"/>
</symbol>

<symbol id="rows">
	<path d="M4,4v7H20V4H4ZM18,9H6V6H18V9Z"/>
	<path d="M4,20H20V13H4v7Zm2-5H18v3H6V15Z"/>
</symbol>

<symbol id="rss-feed">
	<path d="M15,19H13a8,8,0,0,0-8-8V9A10,10,0,0,1,15,19Z"/>
	<path d="M20,19H18A13,13,0,0,0,5,6V4A15,15,0,0,1,20,19Z"/>
	<circle cx="7" cy="17" r="2"/>
</symbol>

<symbol id="search">
	<path d="M20.91,19.49L15.6,14.18a7,7,0,1,0-1.41,1.41l5.31,5.31ZM5,10a5,5,0,1,1,5,5A5,5,0,0,1,5,10Z"/>
</symbol>

<symbol id="seek-e">
	<rect x="14" y="6" width="2" height="12"/>
	<polygon points="6 6 12 12 6 18 6 6"/>
</symbol>

<symbol id="seek-n">
	<rect x="6" y="8" width="12" height="2"/>
	<polygon points="6 18 12 12 18 18 6 18"/>
</symbol>

<symbol id="seek-s">
	<rect x="6" y="14" width="12" height="2"/>
	<polygon points="18 6 12 12 6 6 18 6"/>
</symbol>

<symbol id="seek-w">
	<rect x="8" y="6" width="2" height="12"/>
	<polygon points="18 18 12 12 18 6 18 18"/>
</symbol>

<symbol id="settings">
	<path d="M7,11H17a4,4,0,0,0,0-8H7A4,4,0,0,0,7,11Zm3.45-6H17a2,2,0,0,1,0,4H10.45A3.88,3.88,0,0,0,10.45,5ZM7,4.8A2.2,2.2,0,1,1,4.8,7,2.2,2.2,0,0,1,7,4.8Z"/>
	<path d="M17,13H7a4,4,0,0,0,0,8H17A4,4,0,0,0,17,13Zm0,6.2A2.2,2.2,0,1,1,19.2,17,2.2,2.2,0,0,1,17,19.2Z"/>
</symbol>

<symbol id="shuffle">
	<polygon points="17.71 7.71 20 10 20 4 14 4 16.29 6.29 11.9 10.69 6.51 5.29 5.09 6.71 10.49 12.1 5.09 17.49 6.51 18.91 11.9 13.51 16.19 17.81 14 20 20 20 20 14 17.61 16.39 13.31 12.1 17.71 7.71"/>
</symbol>

<symbol id="sort-asc">
	<rect x="4" y="15" width="12" height="2"/>
	<rect x="4" y="7" width="4" height="2"/>
	<rect x="4" y="11" width="8" height="2"/>
</symbol>

<symbol id="sort-desc">
	<rect x="4" y="7" width="12" height="2"/>
	<rect x="4" y="15" width="4" height="2"/>
	<rect x="4" y="11" width="8" height="2"/>
</symbol>

<symbol id="sum">
	<polygon points="18 19 6 19 6 16.59 10.59 12 6 7.41 6 5 18 5 18 7 8.41 7 13.41 12 8.41 17 18 17 18 19"/>
</symbol>

<symbol id="swap-horiz">
	<polygon points="16 11.5 20.5 7 16 2.5 16 6 4 6 4 8 16 8 16 11.5"/>
	<polygon points="8 12.5 3.5 17 8 21.5 8 18 20 18 20 16 8 16 8 12.5"/>
</symbol>

<symbol id="swap-vert">
	<polygon points="2.5 8 6 8 6 20 8 20 8 8 11.5 8 7 3.5 2.5 8"/>
	<polygon points="18 16 18 4 16 4 16 16 12.5 16 17 20.5 21.5 16 18 16"/>
</symbol>

<symbol id="sync">
	<path d="M6.59,7.59A7,7,0,0,1,18.71,10h2.06A9,9,0,0,0,5.17,6.17L3,4v6H9Z"/>
	<path d="M21,14H15l2.4,2.4A7,7,0,0,1,5.31,14H3.23a9,9,0,0,0,15.6,3.83L21,20V14Z"/>
</symbol>

<symbol id="tag">
	<path d="M21,18H6.59L3,14.41V9.59L6.59,6H21ZM7.41,16H19V8H7.41L5,10.41v3.17Z"/>
	<circle cx="9" cy="12" r="1.5"/>
</symbol>

<symbol id="trash">
	<path d="M19,6H15V3H9V6H5V8H6V21H18V8h1V6ZM11,5h2V6H11V5Zm5,14H8V8h8V19Z"/>
</symbol>

<symbol id="three-quarters">
	<path d="M12,3a9,9,0,1,0,9,9A9,9,0,0,0,12,3Zm0,2v7H5A7,7,0,0,1,12,5Z"/>
</symbol>

<symbol id="undo">
	<path d="M18,9H8V5.5L3.5,10,8,14.5V11H18a1,1,0,0,1,1,1v2a1,1,0,0,1-1,1H14v2h4a3,3,0,0,0,3-3V12A3,3,0,0,0,18,9Z"/>
</symbol>

<symbol id="unexcused">
	<path d="M13,18H11a3,3,0,0,1-3-3V6h2v9a1,1,0,0,0,1,1h2a1,1,0,0,0,1-1V6h2v9A3,3,0,0,1,13,18Z"/>
</symbol>

<symbol id="unfold">
	<polygon points="18.78 19 16.15 19 14.34 8.14 10.72 19 8.15 19 6.4 8.51 4.97 14.24 3.03 13.76 5.22 5 7.85 5 9.66 15.86 13.28 5 15.85 5 17.6 15.49 19.03 9.76 20.97 10.24 18.78 19"/>
</symbol>

<symbol id="unlock">
	<path d="M16,10V7A4,4,0,0,0,8,7V8h2V7a2,2,0,0,1,4,0v3H5V20H19V10H16Zm1,8H7V12H17v6Z"/>
</symbol>

<symbol id="upload">
	<polygon points="11 6.41 11 16 13 16 13 6.41 17.49 10.91 18.91 9.49 12 2.59 5.09 9.49 6.51 10.91 11 6.41"/>
	<polygon points="17 17 17 19 7 19 7 17 5 17 5 21 19 21 19 17 17 17"/>
</symbol>

<symbol id="volume-mute">
	<path d="M12,19H9.59l-3-3H3V8H6.58l3-3H12V19ZM5,14H7.41L10,16.59V7.41L7.41,10H5v4Z"/>
</symbol>

<symbol id="volume-up">
	<path d="M18.29,18.29L17,17A7.11,7.11,0,0,0,17,7l1.27-1.27A8.91,8.91,0,0,1,18.29,18.29Z"/>
	<path d="M15.47,15.46l-1.27-1.27a3.1,3.1,0,0,0,0-4.38l1.27-1.27A4.91,4.91,0,0,1,15.47,15.46Z"/>
	<path d="M12,19H9.59l-3-3H3V8H6.58l3-3H12V19ZM5,14H7.41L10,16.59V7.41L7.41,10H5v4Z"/>
</symbol>

<symbol id="warning">
	<path d="M21,20H3V17.53L10.93,4h2.15L21,17.53V20ZM5,18H19L12,6.12Z"/>
	<rect x="11" y="10" width="2" height="4"/>
	<rect x="11" y="15.5" width="2" height="1.5"/>
</symbol>

<symbol id="warning-fill">
	<path d="M5,17v1H19V17L12.5,6h-1Zm8,0H11V15.5h2V17Zm0-3H11V10h2v4Z"/>
</symbol>

<symbol id="close">
	<polygon points="18.91 6.51 17.49 5.09 12 10.59 6.51 5.09 5.09 6.51 10.59 12 5.09 17.49 6.51 18.91 12 13.41 17.49 18.91 18.91 17.49 13.41 12 18.91 6.51"/>
</symbol>

<symbol id="zoom-in">
	 <path d="M20.91,19.49L15.6,14.18a7,7,0,1,0-1.41,1.41l5.31,5.31ZM5,10a5,5,0,1,1,5,5A5,5,0,0,1,5,10Z"/>
	 <polygon points="11 7 9 7 9 9 7 9 7 11 9 11 9 13 11 13 11 11 13 11 13 9 11 9 11 7"/>
</symbol>

<symbol id="zoom-out">
	<path d="M20.91,19.49L15.6,14.18a7,7,0,1,0-1.41,1.41l5.31,5.31ZM5,10a5,5,0,1,1,5,5A5,5,0,0,1,5,10Z"/>
	<rect x="7" y="9" width="6" height="2"/>
</symbol>


<symbol id="apps">
	<path d="M4,8H8V4H4V8Z"/>
	<path d="M10,8h4V4H10V8Z"/>
	<path d="M16,8h4V4H16V8Z"/>
	<path d="M4,14H8V10H4v4Z"/>
	<path d="M10,14h4V10H10v4Z"/>
	<path d="M16,14h4V10H16v4Z"/>
	<path d="M4,20H8V16H4v4Z"/>
	<path d="M10,20h4V16H10v4Z"/>
	<path d="M16,20h4V16H16v4Z"/>
</symbol>

<symbol id="arrow-e">
	<polygon points="13.51 5.09 12.09 6.51 16.59 11 4 11 4 13 16.59 13 12.09 17.49 13.51 18.91 20.41 12 13.51 5.09"/>
</symbol>

<symbol id="arrow-n">
	<polygon points="18.91 10.49 12 3.59 5.09 10.49 6.51 11.91 11 7.41 11 20 13 20 13 7.41 17.49 11.91 18.91 10.49"/>
</symbol>

<symbol id="arrow-s">
	<polygon points="17.49 12.09 13 16.59 13 4 11 4 11 16.59 6.51 12.09 5.09 13.51 12 20.41 18.91 13.51 17.49 12.09"/>
</symbol>

<symbol id="arrow-w">
	<polygon points="20 11 7.41 11 11.91 6.51 10.49 5.09 3.59 12 10.49 18.91 11.91 17.49 7.41 13 20 13 20 11"/>
</symbol>

<symbol id="arrowhead-e">
	<polygon points="10.51 16.91 9.09 15.49 12.59 12 9.09 8.51 10.51 7.09 15.41 12 10.51 16.91"/>
</symbol>

<symbol id="arrowhead-n">
	<polygon points="15.49 14.91 12 11.41 8.51 14.91 7.09 13.49 12 8.59 16.91 13.49 15.49 14.91"/>
</symbol>

<symbol id="arrowhead-s">
	<polygon points="12 15.41 7.09 10.51 8.51 9.09 12 12.59 15.49 9.09 16.91 10.51 12 15.41"/>
</symbol>

<symbol id="arrowhead-w">
	<polygon points="13.49 16.91 8.59 12 13.49 7.09 14.91 8.51 11.41 12 14.91 15.49 13.49 16.91"/>
</symbol>

<symbol id="collapse">
	<polygon points="18 14 12 8 6 14 18 14"/>
</symbol>

<symbol id="collapse-horiz">
	<polygon points="14 18 8 12 14 6 14 18"/>
</symbol>

<symbol id="menu">
	<rect x="4" y="11" width="16" height="2"/>
	<rect x="4" y="16" width="16" height="2"/>
	<rect x="4" y="6" width="16" height="2"/>
</symbol>

<symbol id="more">
	<circle cx="19" cy="12" r="2"/>
	<circle cx="12" cy="12" r="2"/>
	<circle cx="5" cy="12" r="2"/>
</symbol>

<symbol id="back-color">
	<path d="M18.71,11.29L11,3.59,8.71,1.29,7.29,2.71,9.59,5l-7,7L11,20.41,19.41,12ZM11,6.41L16.59,12H5.41Z"/>
	<path d="M21.73,18L20,15l-1.73,3A2,2,0,1,0,21.73,18Z"/>
</symbol>

<symbol id="bold">
	<path d="M15.71,11.36A4,4,0,0,0,16.5,9a4,4,0,0,0-4-4H7V19h5.5A4.49,4.49,0,0,0,15.71,11.36ZM12.5,8a1,1,0,0,1,0,2H10V8h2.5Zm0,8H10V13h2.5A1.5,1.5,0,0,1,12.5,16Z"/>
</symbol>

<symbol id="html">
	<polygon points="8.29 17.71 2.59 12 8.29 6.29 9.71 7.71 5.41 12 9.71 16.29 8.29 17.71"/>
	<polygon points="15.71 17.71 14.29 16.29 18.59 12 14.29 7.71 15.71 6.29 21.41 12 15.71 17.71"/>
</symbol>

<symbol id="hyperlink">
	<rect x="8" y="11" width="8" height="2"/>
	<rect x="8" y="7" width="3" height="2"/>
	<rect x="8" y="15" width="3" height="2"/>
	<rect x="13" y="15" width="3" height="2"/>
	<rect x="13" y="7" width="3" height="2"/>
	<path d="M8,17A5,5,0,0,1,8,7V9a3,3,0,0,0,0,6v2Z"/>
	<path d="M16,17V15a3,3,0,0,0,0-6V7A5,5,0,0,1,16,17Z"/>
</symbol>

<symbol id="image">
	<path d="M3,5V19H21V5H3ZM19,7v6.73l-4-4-4,4-2-2-4,4V7H19ZM6.27,17L9,14.27l2,2,4-4,4,4V17H6.27Z"/>
	<circle cx="8.5" cy="9.5" r="1.5"/>
</symbol>

<symbol id="indent">
	<rect x="12" y="13" width="8" height="2"/>
	<rect x="8" y="17" width="12" height="2"/>
	<rect x="12" y="9" width="8" height="2"/>
	<rect x="8" y="5" width="12" height="2"/>
	<polygon points="3 16 7 12 3 8 3 16"/>
</symbol>

<symbol id="insert-ordered-list">
	<rect x="9" y="11" width="11" height="2"/>
	<rect x="9" y="17" width="11" height="2"/>
	<rect x="9" y="5" width="11" height="2"/>
	<path d="M4,17H6v0.5H5v1H6V19H4v0.25L4.75,20h1.5L7,19.25v-2.5L6.25,16H4.75L4,16.75V17ZM4,7V8H7V7H6V4H4.75L4,4.75V5H5V7H4Zm0,4H6v0.25l-2,2V14H7V13H5.5L7,11.5V10.75L6.25,10H4.75L4,10.75V11Z"/>
</symbol>

<symbol id="insert-unordered-list">
	<rect x="9" y="11" width="11" height="2"/>
	<rect x="9" y="17" width="11" height="2"/>
	<rect x="9" y="5" width="11" height="2"/>
	<rect x="4" y="11" width="2" height="2"/>
	<rect x="4" y="17" width="2" height="2"/>
	<rect x="4" y="5" width="2" height="2"/>
</symbol>

<symbol id="italic">
	<polygon points="17 7 17 5 11 5 11 7 12.61 7 9.28 17 7 17 7 19 13 19 13 17 11.39 17 14.72 7 17 7"/>
</symbol>

<symbol id="justify-center">
	<rect x="4" y="13" width="16" height="2"/>
	<rect x="7" y="9" width="10" height="2"/>
	<rect x="7" y="17" width="10" height="2"/>
	<rect x="4" y="5" width="16" height="2"/>
</symbol>

<symbol id="justify-full">
	<rect x="4" y="13" width="16" height="2"/>
	<rect x="4" y="9" width="16" height="2"/>
	<rect x="4" y="17" width="16" height="2"/>
	<rect x="4" y="5" width="16" height="2"/>
</symbol>

<symbol id="justify-left">
	<rect x="4" y="13" width="16" height="2"/>
	<rect x="4" y="9" width="10" height="2"/>
	<rect x="4" y="17" width="10" height="2"/>
	<rect x="4" y="5" width="16" height="2"/>
</symbol>

<symbol id="justify-right">
	<rect x="4" y="13" width="16" height="2"/>
	<rect x="10" y="9" width="10" height="2"/>
	<rect x="10" y="17" width="10" height="2"/>
	<rect x="4" y="5" width="16" height="2"/>
</symbol>

<symbol id="outdent">
	<rect x="12" y="13" width="8" height="2"/>
	<rect x="8" y="17" width="12" height="2"/>
	<rect x="12" y="9" width="8" height="2"/>
	<rect x="8" y="5" width="12" height="2"/>
	<polygon points="7 8 3 12 7 16 7 8"/>
</symbol>

<symbol id="strikethrough">
	<path d="M11,19h2V15H11v4ZM6,5V7h5v4h2V7h5V5H6Zm0,9H18V12H6v2Z"/>
</symbol>

<symbol id="underline">
	<rect x="6" y="19" width="12" height="2"/>
	<path d="M13,17H11a3,3,0,0,1-3-3V5h2v9a1,1,0,0,0,1,1h2a1,1,0,0,0,1-1V5h2v9A3,3,0,0,1,13,17Z"/>
</symbol>

<symbol id="app-download">
		<path d="M18,12.037v3h2l-3,3l-3-3h2v-3H18z M15.002,3.001H1.998C0.896,3.001,0,3.897,0,4.999v9.002
		c0,1.102,0.896,1.998,1.998,1.998H6.5v2H5v2h4.522c-0.413-0.616-0.744-1.289-0.997-2c-0.227-0.638-0.389-1.305-0.466-2
		C8.022,15.67,8,15.337,8,14.999C8,14.661,8.022,14.328,8.059,14L2,14.001l-0.002-9L15,4.999v1.232c0.644-0.147,1.312-0.232,2-0.232
		v-1C17,3.897,16.104,3.001,15.002,3.001z M24,14.999c0,3.859-3.141,7-7,7c-1.902,0-3.626-0.765-4.889-2
		c-0.587-0.574-1.068-1.251-1.426-2c-0.297-0.622-0.503-1.294-0.605-2c-0.047-0.328-0.08-0.66-0.08-1c0-0.34,0.033-0.672,0.08-1
		c0.391-2.717,2.343-4.935,4.92-5.705c0.634-0.19,1.305-0.295,2-0.295C20.859,7.999,24,11.14,24,14.999z M22,14.999
		c0-2.757-2.243-5-5-5s-5,2.243-5,5s2.243,5,5,5S22,17.756,22,14.999z"/>
	</symbol>

<symbol id="cloud-upload">
	<polygon points="12 12 8 16 11 16 11 22 13 22 13 16 16 16 12 12"/>
	<path d="M18,20H15V18h3a2,2,0,0,0,0-4H17V11a4,4,0,0,0-8,0v1H7a3,3,0,0,0,0,6H9v2H7A5,5,0,0,1,7,10h.08A6,6,0,0,1,19,11v1.13A4,4,0,0,1,18,20Z"/>
</symbol>

<symbol id="file">
	<path d="M14.41,3H5V21H19V7.59ZM7,19V5h6V9h4V19H7Z"/>
</symbol>

<symbol id="file-archive">
  <polygon fill="#d9a641" points="12 4 12 6 14 6 14 8 12 8 12 10 14 10 14 12 12 12 12 14 14 14 14 16 10 16 10 12 12 12 12 10 10 10 10 8 12 8 12 6 10 6 10 4 4 4 4 20 20 20 20 4 12 4"/>
</symbol>

<symbol id="file-data">
  <rect fill="#2a8158" x="9" y="9" width="2" height="2"/>
  <rect fill="#2a8158" x="9" y="13" width="2" height="2"/>
  <rect fill="#2a8158" x="13" y="13" width="2" height="2"/>
  <rect fill="#2a8158" x="13" y="9" width="2" height="2"/>
  <path fill="#2a8158" d="M4,4V20H20V4ZM17,17H7V7H17Z"/>
</symbol>


<symbol id="file-drag">
	<path d="M22,4.59V18h-4v-2h2V6h-4V2h-6v1.851V4H8V3.987V0h9.41L22,4.59z M11.41,6L16,10.59V16v2v6H2V6h6h2H11.41z M14,12h-4V8H8H4
		v14h10v-4v-2V12z"/>
</symbol>

<symbol id="file-excel">
  <path fill="#2a8158" d="M4,4V20H20V4ZM15,16H13.5L12,13l-1.5,3H9l2-4L9,8h1.5L12,11l1.5-3H15l-2,4Z"/>
</symbol>

<symbol id="file-movie">
  <path fill="#c6c" d="M4,4V20H20V4ZM9,16V8l7,4Z"/>
</symbol>

<symbol id="file-music">
  <path fill="#42a6a6" d="M4,4V20H20V4ZM16,9H14v6c0,1.1-1,2-3,2s-3-.9-3-2,1-2,3-2a4.32,4.32,0,0,1,1,.2V7h4Z"/>
</symbol>

<symbol id="file-pdf">
  <path fill="#e51717" d="M7.72,16.05l.13-.1.22-.2a3.24,3.24,0,0,0-.29.25Z"/>
  <path fill="#e51717" d="M11.64,8.17a1.72,1.72,0,0,0,0-.42c-.05,0-.08.13-.11.32a3.11,3.11,0,0,0,0,.73v.08C11.58,8.61,11.62,8.37,11.64,8.17Z"/>
  <path fill="#e51717" d="M11.65,12a16.24,16.24,0,0,1-.73,1.48c.55-.15,1-.24,1.36-.31l.2,0-.17-.22C12.07,12.57,11.85,12.26,11.65,12Z"/>
  <path fill="#e51717" d="M4,4V20H20V4ZM17.39,15.28a1.13,1.13,0,0,1-.71.59,1.57,1.57,0,0,1-.93,0,3.46,3.46,0,0,1-1-.52,8.25,8.25,0,0,1-1.09-.93L13.28,14l-.81.13a14.42,14.42,0,0,0-1.54.36l-.79.25-.08.11A9.53,9.53,0,0,1,8.5,16.71a2.26,2.26,0,0,1-1.07.56l-.19,0a.68.68,0,0,1-.64-.36,1.09,1.09,0,0,1-.07-.75,1.79,1.79,0,0,1,.54-.88,5.54,5.54,0,0,1,1.46-1c.31-.15.64-.29,1-.41a15.69,15.69,0,0,0,1.42-2.77L11,10.8a6.19,6.19,0,0,1-.27-.77,6.75,6.75,0,0,1-.23-1.14,4.18,4.18,0,0,1,0-1,1.75,1.75,0,0,1,.24-.74,1.06,1.06,0,0,1,.51-.39A1,1,0,0,1,12.38,7a1.57,1.57,0,0,1,.25,1.27,14.16,14.16,0,0,1-.54,2.46l0,.09a9.94,9.94,0,0,0,1,1.43c.17.22.37.45.58.69a7.61,7.61,0,0,1,1,0,7,7,0,0,1,1.08.17,3,3,0,0,1,.92.36,1.78,1.78,0,0,1,.69.76A1.23,1.23,0,0,1,17.39,15.28Z"/>
  <path fill="#e51717" d="M16.16,14.34a2.12,2.12,0,0,0-.62-.24,6.08,6.08,0,0,0-.88-.14,6.59,6.59,0,0,0,.71.58,2.54,2.54,0,0,0,.68.37.55.55,0,0,0,.34,0,.23.23,0,0,0,.11-.06.26.26,0,0,0,0-.19A.82.82,0,0,0,16.16,14.34Z"/>
</symbol>

<symbol id="file-powerpoint">
  <path fill="#d95c3a" d="M12,9.25H10.38v2.5H12c1,0,1.75-.25,1.75-1.25S13,9.25,12,9.25Z"/>
  <path fill="#d95c3a" d="M4,4V20H20V4Zm8.25,9H10.38v3H9V8h3.19C14,8,15,9,15,10.5A2.44,2.44,0,0,1,12.25,13Z"/>
</symbol>

<symbol id="file-presentation">
  <path fill="#d95c3a" d="M4,4V20H20V4ZM9,17H7V11H9Zm4,0H11V7h2Zm4,0H15V13h2Z"/>
</symbol>

<symbol id="file-text">
  <path fill="#3a6ea6" d="M4,4V20H20V4Zm9,13H7V15h6Zm4-4H7V11H17Zm0-4H7V7H17Z"/>
</symbol>

<symbol id="file-word">
  <path fill="#3a6ea6" d="M4,4V20H20V4ZM15.5,16H14l-2-5.25L10,16H8.5L7,8H8.5l1,5.5,2-5.5h1l2,5.5,1-5.5H17Z"/>
</symbol>

<symbol id="file-add">
	<polygon points="13 11 11 11 11 13 9 13 9 15 11 15 11 17 13 17 13 15 15 15 15 13 13 13 13 11"/>
	<path d="M14.41,3H5V21H19V7.59ZM7,19V5h6V9h4V19H7Z"/>
</symbol>

<symbol id="folder">
	<path d="M22,20H2V4H9.41l2,2H22V20ZM4,18H20V8H10.59l-2-2H4V18Z"/>
</symbol>

<symbol id="folder-filter">
  <polygon points="22 20 18 20 18 18 20 18 20 8 10.59 8 8.59 6 4 6 4 18 6 18 6 20 2 20 2 4 9.41 4 11.41 6 22 6 22 20"/>
  <rect x="9" y="18" width="6" height="2"/>
  <rect x="7" y="15" width="10" height="2"/>
  <rect x="11" y="21" width="2" height="2"/>
</symbol>

<symbol id="folder-filter-received">
  <polygon points="18.71 10.71 17.29 9.29 14.29 12.29 12 10 12 16 18 16 15.71 13.71 18.71 10.71"/>
  <rect x="9" y="18" width="6" height="2"/>
  <rect x="11" y="21" width="2" height="2"/>
  <polygon points="22 20 18 20 18 18 20 18 20 8 10.59 8 8.59 6 4 6 4 18 6 18 6 20 2 20 2 4 9.41 4 11.41 6 22 6 22 20"/>
</symbol>

<symbol id="folder-filter-shared">
  <polygon points="18 10 12 10 14.29 12.29 11.29 15.29 12.71 16.71 15.71 13.71 18 16 18 10"/>
  <rect x="9" y="18" width="6" height="2"/>
  <rect x="11" y="21" width="2" height="2"/>
  <polygon points="22 20 18 20 18 18 20 18 20 8 10.59 8 8.59 6 4 6 4 18 6 18 6 20 2 20 2 4 9.41 4 11.41 6 22 6 22 20"/>
</symbol>

<symbol id="folder-add">
	<path d="M11.41,6l-2-2H2V20H22V6H11.41ZM20,18H4V6H8.59l2,2H20V18Z"/>
	<polygon points="14 16 16 16 16 14 18 14 18 12 16 12 16 10 14 10 14 12 12 12 12 14 14 14 14 16"/>
</symbol>

<symbol id="folder-locked">
	<path d="M15,15a3,3,0,0,0-6,0v1H8v6h8V16H15V15Zm-4.2,0a1.2,1.2,0,0,1,2.4,0v1H10.8V15Z"/>
	<polygon points="11.41 6 9.41 4 2 4 2 20 6 20 6 18 4 18 4 6 8.59 6 10.59 8 20 8 20 18 18 18 18 20 22 20 22 6 11.41 6"/>
</symbol>

<symbol id="folder-received">
	<path d="M22,20H2V4H9.41l2,2H22ZM4,18H20V8H10.59l-2-2H4Z"/>
	<polygon points="18.71 10.71 17.29 9.29 14.29 12.29 12 10 12 16 18 16 15.71 13.71 18.71 10.71"/>
</symbol>

<symbol id="folder-shared">
	<path d="M22,20H2V4H9.41l2,2H22ZM4,18H20V8H10.59l-2-2H4Z"/>
	<polygon points="18 10 12 10 14.29 12.29 11.29 15.29 12.71 16.71 15.71 13.71 18 16 18 10"/>
</symbol>

<symbol id="folder-system">
	<polygon points="11.41 6 9.41 4 2 4 2 20 6 20 6 18 4 18 4 6 8.59 6 10.59 8 20 8 20 18 18 18 18 20 22 20 22 6 11.41 6"/>
	<path d="M15.83,13.63l-1.89,1.09A3,3,0,0,0,13,14.18V12H11v2.18a3,3,0,0,0-.94.54L8.17,13.63l-1,1.73,1.89,1.09a2.73,2.73,0,0,0,0,1.09L7.17,18.63l1,1.73,1.89-1.09a3,3,0,0,0,.94.54V22h2V19.82a3,3,0,0,0,.94-0.54l1.89,1.09,1-1.73-1.89-1.09a2.73,2.73,0,0,0,0-1.09l1.89-1.09ZM12,18.2A1.2,1.2,0,1,1,13.2,17,1.2,1.2,0,0,1,12,18.2Z"/>
</symbol>

<symbol id="folder-upload">
	<polygon points="16 16 12 12 8 16 11 16 11 22 13 22 13 16 16 16"/>
	<polygon points="11.41 6 9.41 4 2 4 2 20 9 20 9 18 4 18 4 6 8.59 6 10.59 8 20 8 20 18 15 18 15 20 22 20 22 6 11.41 6"/>
</symbol>

<symbol id="expand">
	<polygon points="18 10 12 16 6 10 18 10"/>
</symbol>

<symbol id="expand-horiz">
	<polygon points="10 18 16 12 10 6 10 18"/>
</symbol>

<symbol id="cloud">
  <path d="M18,20H7A5,5,0,0,1,7,10h.08A6,6,0,0,1,19,11v1.13A4,4,0,0,1,18,20ZM7,12a3,3,0,0,0,0,6H18a2,2,0,0,0,0-4H17V11a4,4,0,0,0-8,0v1Z"/>
</symbol>

<symbol id="file-image">
  <path fill="#7fa632" d="M4,4V20H20V4ZM9,7A2,2,0,1,1,7,9,2,2,0,0,1,9,7Zm9,11H6V16l3-3,2,2,4-4,3,3Z"/>
</symbol>

<symbol id="hyperlink-remove">
	<path d="M8,9h3V7H8A5,5,0,0,0,8,17h3V15H8A3,3,0,0,1,8,9Z"/>
	<path d="M16,7H13V9h3a3,3,0,0,1,0,6H13v2h3A5,5,0,0,0,16,7Z"/>
</symbol>

<symbol id="group-elements">
	<path d="M6,6V18H18V6ZM8,8h3v3H8Zm3,8H8V13h3Zm5,0H13V13h3Zm-3-5V8h3v3Z"/>
</symbol>

<symbol id="ungroup-elements">
	<path d="M20,11H13V4h7ZM15,9h3V6H15Z"/>
	<path d="M11,11H5V5h6ZM7,9H9V7H7Z"/>
	<path d="M19,19H13V13h6Zm-4-2h2V15H15Z"/>
	<path d="M11,20H4V13h7ZM6,18H9V15H6Z"/>
</symbol>


<symbol id="save">
	<g>
		<path d="M17,11H6V6H17ZM8,9h7V8H8Z"/>
		<path d="M12,18a3,3,0,1,1,3-3A3.00328,3.00328,0,0,1,12,18Zm0-4a1,1,0,1,0,1,1A1.001,1.001,0,0,0,12,14Z"/>
		<path d="M22,21H2V2H17.46338L22,7.35645ZM4,19H20V8.08887L16.53662,4H4Z"/>
	</g>

</symbol>


	<symbol id="checked-false">
		<path class="st134" fill="#F03926" d="M18,2H6C3.791,2,2,3.791,2,6v12c0,2.209,1.791,4,4,4h12c2.209,0,4-1.791,4-4V6C22,3.791,20.209,2,18,2z
			 M13,18h-2v-2h2V18z M13,14h-2V6h2V14z"/>
		<rect fill="#FFFFFF" x="11" y="6" class="st133" width="2" height="8"/>
		<rect fill="#FFFFFF" x="11" y="16" class="st133" width="2" height="2"/>
	</symbol>

	<symbol id="checked-true">
		<path class="st132" fill="#66C004" d="M18,2H6C3.791,2,2,3.791,2,6v12c0,2.209,1.791,4,4,4h12c2.209,0,4-1.791,4-4V6C22,3.791,20.209,2,18,2z
			 M10.5,16.27l-3.64-3.63l1.28-1.28l2.36,2.37l5.36-5.37l1.28,1.28L10.5,16.27z"/>
		<polygon class="st133" fill="#FFFFFF" points="10.5,13.73 8.14,11.36 6.86,12.64 10.5,16.27 17.14,9.64 15.86,8.36 		"/>
	</symbol>

	<symbol id="folder-storage-received">
		<path d="M17,15c0-1.71-2.149-3-5-3s-5,1.29-5,3v4c0,1.71,2.149,3,5,3s5-1.29,5-3.016l-0.058-3.617C16.965,15.246,17,15.127,17,15z
		 M12,14c1.936,0,3,0.751,3,1s-1.064,1-3,1s-3-0.751-3-1S10.064,14,12,14z M12,20c-1.936,0-3-0.751-3-1v-1.579
		C9.826,17.783,10.851,18,12,18c1.137,0,2.153-0.212,2.975-0.567L15,19C15,19.249,13.936,20,12,20z M15.293,3.707L17.586,6l3-3
		L22,4.414l-3,3l2.293,2.293l-6,0L15.293,3.707z M13,4v2h-2.414l-2-2H4v12h1v2H2V2h7.414l2,2H13z M22,12v6h-3v-2h1v-4H22z"/>
	</symbol>

	<symbol id="folder-storage-shared">
		<path d="M17,15c0-1.71-2.149-3-5-3s-5,1.29-5,3v4c0,1.71,2.149,3,5,3s5-1.29,5-3.016l-0.058-3.617C16.965,15.246,17,15.127,17,15z
		 M12,14c1.936,0,3,0.751,3,1s-1.064,1-3,1s-3-0.751-3-1S10.064,14,12,14z M12,20c-1.936,0-3-0.751-3-1v-1.579
		C9.826,17.783,10.851,18,12,18c1.137,0,2.153-0.212,2.975-0.567L15,19C15,19.249,13.936,20,12,20z M22,9l-2.293-2.293l-3,3
		l-1.414-1.414l3-3L16,3h6V9z M13,4v2h-2.414l-2-2H4v12h1v2H2V2h7.414l2,2H13z M22,12v6h-3v-2h1v-4H22z"/>
	</symbol>

	<symbol id="folder-storage">
		<path d="M22,18h-3v-2h1V6h-9.414l-2-2H4v12h1v2H2V2h7.414l2,2H22V18z M16.942,15.367L17,18.984C17,20.71,14.851,22,12,22
		s-5-1.29-5-3v-4c0-1.71,2.149-3,5-3s5,1.29,5,3C17,15.127,16.965,15.246,16.942,15.367z M9,15c0,0.249,1.064,1,3,1s3-0.751,3-1
		s-1.064-1-3-1S9,14.751,9,15z M15,19l-0.025-1.567C14.153,17.788,13.137,18,12,18c-1.149,0-2.174-0.217-3-0.579V19
		c0,0.249,1.064,1,3,1S15,19.249,15,19z"/>
	</symbol>

	<symbol id="text-edit">
		<path d="M13,6v12h2v2l-6,0v-2h2V6H9V4h6v2H13z"/>
	</symbol>

	<symbol id="access-control">
		<svg xmlns="http://www.w3.org/2000/svg" width="24" height="24" viewBox="0 0 24 24">
			<path d="M23,12.40771l-.51953-.28466A12.14739,12.14739,0,0,0,17,11H15v2h2a11.60925,11.60925,0,0,1,4,.65625V16H17V14.40771l-.51953-.28466A12.14739,12.14739,0,0,0,11,13a12.14739,12.14739,0,0,0-5.48047,1.123L5,14.40771V20H17V18h6ZM15,18H7V15.65674A11.597,11.597,0,0,1,11,15a11.60925,11.60925,0,0,1,4,.65625Z"/><path d="M11,12a3,3,0,0,0,3-3V8A3,3,0,0,0,8,8V9A3,3,0,0,0,11,12ZM9.8,8a1.2,1.2,0,0,1,2.4,0V9A1.2,1.2,0,0,1,9.8,9Z"/><path d="M18,10a3,3,0,0,0,3-3V6a3,3,0,0,0-6,0V7A3,3,0,0,0,18,10ZM16.8,6a1.2,1.2,0,0,1,2.4,0V7a1.2,1.2,0,0,1-2.4,0Z"/><polygon points="3.414 10.414 0.983 7.983 2.397 6.569 3.414 7.586 5.293 5.707 6.707 7.121 3.414 10.414"/>
		</svg>
	</symbol>

	<symbol id="file-burl">
		<svg xmlns="http://www.w3.org/2000/svg" width="24" height="24" viewBox="0 0 24 24">

			<path d="M18.055,10.256c-3.181,0-5.76,2.579-5.76,5.76s2.579,5.76,5.76,5.76s5.76-2.579,5.76-5.76S21.236,10.256,18.055,10.256z
			 M21.729,13.456h-1.421c-0.132-0.547-0.321-1.079-0.563-1.587C20.545,12.195,21.234,12.747,21.729,13.456z M22.535,16.016
			c0,0.433-0.062,0.865-0.186,1.28h-1.811c0.051-0.425,0.076-0.852,0.077-1.28c-0.001-0.428-0.026-0.855-0.077-1.28h1.811
			C22.473,15.151,22.535,15.583,22.535,16.016z M18.164,20.496h-0.218c-0.46-0.558-0.785-1.215-0.947-1.92h2.118
			C18.953,19.281,18.627,19.939,18.164,20.496z M16.737,17.296c-0.058-0.424-0.088-0.852-0.09-1.28
			c0.001-0.428,0.031-0.856,0.09-1.28h2.63c0.058,0.424,0.088,0.852,0.09,1.28c-0.001,0.428-0.031,0.856-0.09,1.28H16.737z
			 M13.575,16.016c0-0.433,0.062-0.865,0.186-1.28h1.811c-0.102,0.85-0.102,1.71,0,2.56h-1.811
			C13.637,16.881,13.575,16.449,13.575,16.016z M17.946,11.536h0.218c0.46,0.558,0.785,1.215,0.947,1.92h-2.112
			C17.161,12.751,17.486,12.094,17.946,11.536z M16.365,11.862c-0.243,0.51-0.431,1.044-0.563,1.594h-1.421
			c0.494-0.709,1.183-1.261,1.984-1.587V11.862z M14.381,18.576h1.421c0.132,0.547,0.321,1.079,0.563,1.587
			C15.565,19.837,14.876,19.285,14.381,18.576z M19.745,20.163c0.242-0.508,0.431-1.04,0.563-1.587h1.421
			C21.234,19.285,20.545,19.837,19.745,20.163z"/>

			<path d="M4,4v16h9.894c-0.549-0.568-0.978-1.247-1.257-2H6V6h12v4.26c0.026,0,0.051-0.004,0.077-0.004
		c0.675,0,1.32,0.12,1.923,0.331V4H4z"/>
		</svg>
	</symbol>



	<symbol id="fingerprint">
		<svg xmlns="http://www.w3.org/2000/svg" width="24" height="24" viewBox="0 0 24 24">

			<path d="M9.12,9.696v5.184c0,1.588,1.292,2.88,2.88,2.88s2.88-1.292,2.88-2.88v-1.152c0-0.318-0.258-0.576-0.576-0.576
			s-0.576,0.258-0.576,0.576v1.152c0,0.953-0.775,1.728-1.728,1.728s-1.728-0.775-1.728-1.728V9.696
			c0-0.318-0.258-0.576-0.576-0.576S9.12,9.378,9.12,9.696z"/>
			<path d="M14.304,12c0.318,0,0.576-0.258,0.576-0.576V9.12c0-1.588-1.292-2.88-2.88-2.88c-0.703,0-1.379,0.256-1.905,0.72
			c-0.238,0.21-0.261,0.575-0.05,0.813c0.211,0.238,0.574,0.261,0.813,0.05C11.173,7.545,11.578,7.392,12,7.392
			c0.953,0,1.728,0.775,1.728,1.728v2.304C13.728,11.742,13.986,12,14.304,12z"/>
			<path d="M12,1.632c-4.129,0-7.488,3.359-7.488,7.488c0,0.318,0.258,0.576,0.576,0.576c0.318,0,0.576-0.258,0.576-0.576
			c0-3.493,2.843-6.336,6.336-6.336s6.336,2.843,6.336,6.336v5.76c0,0.355-0.029,0.711-0.088,1.056
			c-0.052,0.314,0.159,0.611,0.472,0.664c0.032,0.006,0.065,0.008,0.096,0.008c0.276,0,0.52-0.199,0.567-0.48
			c0.069-0.409,0.104-0.828,0.104-1.248V9.12C19.488,4.991,16.129,1.632,12,1.632z"/>
			<path d="M18.276,17.837c-0.275-0.159-0.627-0.065-0.787,0.21c-1.131,1.954-3.234,3.169-5.489,3.169
			c-3.493,0-6.336-2.843-6.336-6.336v-3.456c0-0.318-0.258-0.576-0.576-0.576c-0.318,0-0.576,0.258-0.576,0.576v3.456
			c0,4.129,3.359,7.488,7.488,7.488c2.665,0,5.15-1.434,6.486-3.744C18.645,18.349,18.551,17.997,18.276,17.837z"/>
			<path d="M7.392,13.152c-0.318,0-0.576,0.258-0.576,0.576v1.152c0,2.858,2.326,5.184,5.184,5.184s5.184-2.326,5.184-5.184V9.12
			c0-2.858-2.326-5.184-5.184-5.184S6.816,6.262,6.816,9.12v2.304C6.816,11.742,7.074,12,7.392,12c0.318,0,0.576-0.258,0.576-0.576
			V9.12c0-2.223,1.809-4.032,4.032-4.032s4.032,1.809,4.032,4.032v5.76c0,2.223-1.809,4.032-4.032,4.032s-4.032-1.809-4.032-4.032
			v-1.152C7.968,13.41,7.71,13.152,7.392,13.152z"/>
			<path d="M11.424,9.12v5.76c0,0.318,0.258,0.576,0.576,0.576s0.576-0.258,0.576-0.576V9.12c0-0.318-0.258-0.576-0.576-0.576
			S11.424,8.802,11.424,9.12z"/>
		</svg>
	</symbol>


	<symbol id="heading-big">
		<svg xmlns="http://www.w3.org/2000/svg" width="24" height="24" viewBox="0 0 24 24">

			<path d="M6.415,16.318V7.682h1.793v3.293h3.357V7.682h1.793v8.637h-1.793v-3.855H8.208v3.855H6.415z"/>
			<path d="M14.803,11.924v-0.853c0.395-0.018,0.671-0.044,0.828-0.079c0.252-0.056,0.456-0.167,0.614-0.334
			c0.107-0.114,0.189-0.267,0.245-0.457c0.032-0.114,0.048-0.199,0.048-0.255h1.047v6.372h-1.283v-4.395H14.803z"/>
		</svg>
	</symbol>

	<symbol id="heading-medium">
		<svg xmlns="http://www.w3.org/2000/svg" width="24" height="24" viewBox="0 0 24 24">
	<path d="M5.796,16.318V7.682h1.793v3.293h3.357V7.682h1.793v8.637h-1.793v-3.855H7.589v3.855H5.796z"/>
	<path d="M14.136,15.066c0.178-0.425,0.6-0.875,1.266-1.35c0.576-0.413,0.95-0.709,1.12-0.888c0.261-0.278,0.392-0.583,0.392-0.914
			c0-0.27-0.075-0.493-0.225-0.673c-0.149-0.178-0.363-0.268-0.642-0.268c-0.381,0-0.641,0.143-0.778,0.426
			c-0.078,0.165-0.126,0.426-0.141,0.783h-1.217c0.021-0.542,0.119-0.98,0.295-1.314c0.334-0.636,0.928-0.953,1.781-0.953
			c0.675,0,1.211,0.187,1.61,0.56c0.398,0.374,0.599,0.868,0.599,1.483c0,0.472-0.142,0.891-0.423,1.257
			c-0.186,0.243-0.489,0.515-0.912,0.813l-0.502,0.355c-0.313,0.223-0.528,0.384-0.645,0.483c-0.115,0.1-0.213,0.216-0.292,0.347
			h2.781v1.104h-4.363C13.853,15.861,13.95,15.443,14.136,15.066z"/>
		</svg>
	</symbol>


	<symbol id="heading-small">
		<svg xmlns="http://www.w3.org/2000/svg" width="24" height="24" viewBox="0 0 24 24">
			<path d="M5.798,16.239V7.603h1.793v3.293h3.357V7.603h1.793v8.637h-1.793v-3.855H7.591v3.855H5.798z"/>
			<path d="M15.029,14.284c0,0.254,0.041,0.465,0.123,0.633c0.151,0.307,0.428,0.461,0.828,0.461c0.246,0,0.46-0.084,0.643-0.253
			c0.183-0.168,0.274-0.411,0.274-0.728c0-0.418-0.17-0.698-0.509-0.839c-0.192-0.079-0.496-0.118-0.911-0.118v-0.896
			c0.406-0.006,0.689-0.046,0.85-0.119c0.277-0.123,0.416-0.372,0.416-0.747c0-0.243-0.071-0.44-0.213-0.593
			s-0.341-0.229-0.598-0.229c-0.296,0-0.513,0.094-0.651,0.281s-0.205,0.438-0.199,0.751h-1.169
			c0.012-0.316,0.065-0.616,0.162-0.901c0.103-0.248,0.264-0.479,0.483-0.689c0.164-0.149,0.358-0.264,0.584-0.343
			c0.225-0.079,0.502-0.118,0.829-0.118c0.609,0,1.1,0.157,1.473,0.472c0.373,0.315,0.561,0.738,0.561,1.269
			c0,0.375-0.112,0.691-0.334,0.949c-0.141,0.161-0.288,0.271-0.439,0.329c0.113,0,0.277,0.099,0.492,0.294
			c0.318,0.297,0.479,0.701,0.479,1.213c0,0.54-0.187,1.014-0.56,1.422c-0.373,0.409-0.926,0.613-1.657,0.613
			c-0.901,0-1.528-0.295-1.879-0.883c-0.185-0.313-0.287-0.724-0.308-1.23H15.029z"/>
		</svg>
	</symbol>



	<symbol id="hint">
		<svg xmlns="http://www.w3.org/2000/svg" width="24" height="24" viewBox="0 0 24 24">
			<path d="M9.15,17.663c-3.318-1.574-4.732-5.54-3.158-8.858s5.54-4.732,8.858-3.158s4.732,5.54,3.158,8.858
		c-0.657,1.385-1.773,2.501-3.158,3.158V20.2h-5.7V17.663z M9.15,21.15h5.7v1.425c0,0.788-0.637,1.425-1.425,1.425h-2.85
		c-0.787,0-1.425-0.638-1.425-1.425V21.15z M11.05,16.305V18.3h1.9v-1.995c2.57-0.525,4.229-3.034,3.704-5.604
		c-0.525-2.57-3.034-4.229-5.604-3.704s-4.229,3.034-3.704,5.604C7.727,14.466,9.185,15.924,11.05,16.305z"/>
			<rect x="11" width="2" height="4"/>
			<rect x="4.745" y="1.924" transform="matrix(0.7071 -0.7071 0.7071 0.7071 -1.0917 5.2119)" width="2" height="4"/>
			<rect x="17.255" y="1.924" transform="matrix(0.7071 0.7071 -0.7071 0.7071 8.1212 -11.7587)" width="2" height="4"/>
			<rect x="21" y="6.803" transform="matrix(-1.836970e-16 1 -1 -1.836970e-16 30.8027 -13.1972)" width="2" height="4"/>
			<rect x="1" y="6.803" transform="matrix(-1.836970e-16 1 -1 -1.836970e-16 10.8028 6.8028)" width="2" height="4"/>
	</svg>
	</symbol>


	<symbol id="file-markdown">
		<svg xmlns="http://www.w3.org/2000/svg" width="24" height="24" viewBox="0 0 24 24">
			<path d="M13.93,15.77v-3h0V4h-3.086l-1.854,8.07L7.121,4H4v10.263h1.998V7.321c0-0.2-0.002-0.479-0.007-0.839
		C5.987,6.122,5.984,5.845,5.984,5.65l1.931,8.613H10l1.945-8.613c0,0.195-0.002,0.472-0.007,0.832
		c-0.005,0.36-0.007,0.639-0.007,0.839v5.449H11.93v3h-3.5l4.5,4.5l4.5-4.5H13.93z"/>
		</svg>
	</symbol>

	<symbol id="quote">
		<svg xmlns="http://www.w3.org/2000/svg" width="24" height="24" viewBox="0 0 24 24">
			<path d="M6.978,14.814c0.773-0.258,1.315-0.602,1.628-1.035c0.313-0.432,0.469-1.136,0.469-2.111H6.909V7.682h4.001v3.27
			c-0.009,1.067-0.12,1.895-0.331,2.483c-0.349,0.911-0.892,1.605-1.628,2.083c-0.432,0.276-1.09,0.543-1.973,0.8V14.814z
			 M13.159,14.814c0.911-0.258,1.522-0.74,1.835-1.449c0.175-0.405,0.262-0.97,0.262-1.697H13.09V7.682h4.001v3.27
			c-0.037,1.14-0.147,1.991-0.331,2.552c-0.221,0.644-0.651,1.226-1.29,1.745c-0.639,0.52-1.409,0.876-2.311,1.069V14.814z"/>
		</svg>
	</symbol>



	<!-- Icon Sprite -->
<use x="0" y="0" xlink:href="#add"/>
<use x="0" y="24" xlink:href="#alert"/>
<use x="0" y="48" xlink:href="#book"/>
<use x="0" y="72" xlink:href="#bookmark"/>
<use x="0" y="96" xlink:href="#calendar"/>
<use x="0" y="120" xlink:href="#chart"/>
<use x="0" y="144" xlink:href="#chat"/>
<use x="0" y="168" xlink:href="#check"/>
<use x="0" y="192" xlink:href="#checkmark"/>
<use x="0" y="216" xlink:href="#class-book"/>
<use x="0" y="240" xlink:href="#class-book-flip"/>
<use x="0" y="264" xlink:href="#clock"/>
<use x="0" y="288" xlink:href="#clear"/>
<use x="0" y="312" xlink:href="#close-panel"/>
<use x="0" y="336" xlink:href="#cmd"/>
<use x="0" y="360" xlink:href="#cog"/>
<use x="0" y="384" xlink:href="#columns"/>
<use x="0" y="408" xlink:href="#connector"/>
<use x="0" y="432" xlink:href="#copy"/>
<use x="0" y="456" xlink:href="#crop"/>
<use x="0" y="480" xlink:href="#cut"/>
<use x="0" y="504" xlink:href="#dashboard"/>
<use x="0" y="528" xlink:href="#day"/>
<use x="0" y="552" xlink:href="#deny"/>
<use x="0" y="576" xlink:href="#desktop"/>
<use x="0" y="600" xlink:href="#device"/>
<use x="0" y="624" xlink:href="#dialogue"/>
<use x="0" y="648" xlink:href="#dimension"/>
<use x="0" y="672" xlink:href="#download"/>
<use x="0" y="696" xlink:href="#drag"/>
<use x="0" y="720" xlink:href="#drag-active"/>
<use x="0" y="744" xlink:href="#duplicate"/>
<use x="0" y="768" xlink:href="#emoticon"/>
<use x="0" y="792" xlink:href="#empty"/>
<use x="0" y="816" xlink:href="#event-available"/>
<use x="0" y="840" xlink:href="#error"/>
<use x="0" y="864" xlink:href="#excused"/>
<use x="0" y="888" xlink:href="#exit"/>
<use x="0" y="912" xlink:href="#favorite"/>
<use x="0" y="936" xlink:href="#logout"/>
<use x="0" y="960" xlink:href="#filter"/>
<use x="0" y="984" xlink:href="#flag"/>
<use x="0" y="1008" xlink:href="#full"/>
<use x="0" y="1032" xlink:href="#fullscreen"/>
<use x="0" y="1056" xlink:href="#funnel"/>
<use x="0" y="1080" xlink:href="#grid"/>
<use x="0" y="1104" xlink:href="#group"/>
<use x="0" y="1128" xlink:href="#group-add"/>
<use x="0" y="1152" xlink:href="#half"/>
<use x="0" y="1176" xlink:href="#help"/>
<use x="0" y="1200" xlink:href="#home"/>
<use x="0" y="1224" xlink:href="#hourglass"/>
<use x="0" y="1248" xlink:href="#info"/>
<use x="0" y="1272" xlink:href="#insert-file"/>
<use x="0" y="1296" xlink:href="#insert-m"/>
<use x="0" y="1320" xlink:href="#insert-n"/>
<use x="0" y="1344" xlink:href="#insert-s"/>
<use x="0" y="1368" xlink:href="#interruption"/>
<use x="0" y="1392" xlink:href="#kpi"/>
<use x="0" y="1416" xlink:href="#language"/>
<use x="0" y="1440" xlink:href="#laptop"/>
<use x="0" y="1464" xlink:href="#lock"/>
<use x="0" y="1488" xlink:href="#mail"/>
<use x="0" y="1512" xlink:href="#map"/>
<use x="0" y="1536" xlink:href="#maximize"/>
<use x="0" y="1560" xlink:href="#minimize"/>
<use x="0" y="1584" xlink:href="#minus"/>
<use x="0" y="1608" xlink:href="#note"/>
<use x="0" y="1632" xlink:href="#note-fill"/>
<use x="0" y="1656" xlink:href="#open-in-browser"/>
<use x="0" y="1680" xlink:href="#open-in-new"/>
<use x="0" y="1704" xlink:href="#open-panel"/>
<use x="0" y="1728" xlink:href="#paste"/>
<use x="0" y="1752" xlink:href="#pause"/>
<use x="0" y="1776" xlink:href="#pencil"/>
<use x="0" y="1800" xlink:href="#person"/>
<use x="0" y="1824" xlink:href="#person-add"/>
<use x="0" y="1848" xlink:href="#pin"/>
<use x="0" y="1872" xlink:href="#place"/>
<use x="0" y="1896" xlink:href="#play"/>
<use x="0" y="1920" xlink:href="#plus"/>
<use x="0" y="1944" xlink:href="#preview"/>
<use x="0" y="1968" xlink:href="#print"/>
<use x="0" y="1992" xlink:href="#quarter"/>
<use x="0" y="2016" xlink:href="#redo"/>
<use x="0" y="2040" xlink:href="#refresh"/>
<use x="0" y="2064" xlink:href="#remove"/>
<use x="0" y="2088" xlink:href="#restore"/>
<use x="0" y="2112" xlink:href="#rotate-ccw"/>
<use x="0" y="2136" xlink:href="#rotate-cw"/>
<use x="0" y="2160" xlink:href="#rows"/>
<use x="0" y="2184" xlink:href="#rss-feed"/>
<use x="0" y="2208" xlink:href="#search"/>
<use x="0" y="2232" xlink:href="#seek-e"/>
<use x="0" y="2256" xlink:href="#seek-n"/>
<use x="0" y="2280" xlink:href="#seek-s"/>
<use x="0" y="2304" xlink:href="#seek-w"/>
<use x="0" y="2328" xlink:href="#settings"/>
<use x="0" y="2352" xlink:href="#shuffle"/>
<use x="0" y="2376" xlink:href="#sort-asc"/>
<use x="0" y="2400" xlink:href="#sort-desc"/>
<use x="0" y="2424" xlink:href="#sum"/>
<use x="0" y="2448" xlink:href="#swap-horiz"/>
<use x="0" y="2472" xlink:href="#swap-vert"/>
<use x="0" y="2496" xlink:href="#sync"/>
<use x="0" y="2520" xlink:href="#tag"/>
<use x="0" y="2544" xlink:href="#trash"/>
<use x="0" y="2568" xlink:href="#three-quarters"/>
<use x="0" y="2592" xlink:href="#undo"/>
<use x="0" y="2616" xlink:href="#unexcused"/>
<use x="0" y="2640" xlink:href="#unfold"/>
<use x="0" y="2664" xlink:href="#unlock"/>
<use x="0" y="2688" xlink:href="#upload"/>
<use x="0" y="2712" xlink:href="#volume-mute"/>
<use x="0" y="2736" xlink:href="#volume-up"/>
<use x="0" y="2760" xlink:href="#warning"/>
<use x="0" y="2784" xlink:href="#warning-fill"/>
<use x="0" y="2808" xlink:href="#close"/>
<use x="0" y="2832" xlink:href="#zoom-in"/>
<use x="0" y="2856" xlink:href="#zoom-out"/>

<use x="0" y="2880" xlink:href="#apps"/>
<use x="0" y="2904" xlink:href="#arrow-e"/>
<use x="0" y="2928" xlink:href="#arrow-n"/>
<use x="0" y="2952" xlink:href="#arrow-s"/>
<use x="0" y="2976" xlink:href="#arrow-w"/>
<use x="0" y="3000" xlink:href="#arrowhead-e"/>
<use x="0" y="3024" xlink:href="#arrowhead-n"/>
<use x="0" y="3048" xlink:href="#arrowhead-s"/>
<use x="0" y="3072" xlink:href="#arrowhead-w"/>
<use x="0" y="3096" xlink:href="#collapse"/>
<use x="0" y="3120" xlink:href="#collapse-horiz"/>
<use x="0" y="3144" xlink:href="#menu"/>
<use x="0" y="3168" xlink:href="#more"/>

<use x="0" y="3192" xlink:href="#back-color"/>
<use x="0" y="3216" xlink:href="#bold"/>
<use x="0" y="3240" xlink:href="#html"/>
<use x="0" y="3264" xlink:href="#hyperlink"/>
<use x="0" y="3288" xlink:href="#image"/>
<use x="0" y="3312" xlink:href="#indent"/>
<use x="0" y="3336" xlink:href="#insert-ordered-list"/>
<use x="0" y="3360" xlink:href="#insert-unordered-list"/>
<use x="0" y="3384" xlink:href="#italic"/>
<use x="0" y="3408" xlink:href="#justify-center"/>
<use x="0" y="3432" xlink:href="#justify-full"/>
<use x="0" y="3456" xlink:href="#justify-left"/>
<use x="0" y="3480" xlink:href="#justify-right"/>
<use x="0" y="3504" xlink:href="#outdent"/>
<use x="0" y="3528" xlink:href="#strikethrough"/>
<use x="0" y="3552" xlink:href="#underline"/>

<use x="0" y="3576" xlink:href="#cloud-upload"/>
<use x="0" y="3600" xlink:href="#file"/>
<use x="0" y="3624" xlink:href="#file-archive"/>
<use x="0" y="3648" xlink:href="#file-data"/>
<use x="0" y="3672" xlink:href="#file-excel"/>
<use x="0" y="3696" xlink:href="#file-movie"/>
<use x="0" y="3720" xlink:href="#file-music"/>
<use x="0" y="3744" xlink:href="#file-pdf"/>
<use x="0" y="3768" xlink:href="#file-powerpoint"/>
<use x="0" y="3792" xlink:href="#file-presentation"/>
<use x="0" y="3816" xlink:href="#file-text"/>
<use x="0" y="3840" xlink:href="#file-word"/>
<use x="0" y="3864" xlink:href="#file-add"/>
<use x="0" y="3888" xlink:href="#folder"/>
<use x="0" y="3912" xlink:href="#folder-add"/>
<use x="0" y="3936" xlink:href="#folder-locked"/>
<use x="0" y="3960" xlink:href="#folder-received"/>
<use x="0" y="3984" xlink:href="#folder-shared"/>
<use x="0" y="4008" xlink:href="#folder-system"/>
<use x="0" y="4032" xlink:href="#folder-upload"/>

<use x="0" y="4056" xlink:href="#expand"/>
<use x="0" y="4080" xlink:href="#expand-horiz"/>
<use x="0" y="4104" xlink:href="#cloud"/>
<use x="0" y="4128" xlink:href="#file-image"/>
<use x="0" y="4152" xlink:href="#hyperlink-remove"/>
<use x="0" y="4176" xlink:href="#group-elements"/>
<use x="0" y="4200" xlink:href="#ungroup-elements"/>

<use x="0" y="4224" xlink:href="#folder-filter"/>
<use x="0" y="4248" xlink:href="#folder-filter-received"/>
<use x="0" y="4272" xlink:href="#folder-filter-shared"/>

<use x="0" y="4296" xlink:href="#restore-trash"/>
<use x="0" y="4320" xlink:href="#save"/>
<use x="0" y="4344" xlink:href="#adjust"/>
<use x="0" y="4368" xlink:href="#app-download"/>
<use x="0" y="4392" xlink:href="#file-drag"/>

<use x="0" y="4416" xlink:href="#checked-false"/>
<use x="0" y="4440" xlink:href="#checked-true"/>
<use x="0" y="4464" xlink:href="#folder-storage-received"/>
<use x="0" y="4488" xlink:href="#folder-storage-shared"/>
<use x="0" y="4512" xlink:href="#folder-storage"/>
<use x="0" y="4536" xlink:href="#text-edit"/>
<use x="0" y="4560" xlink:href="#access-control"/>


<use x="0" y="4584" xlink:href="#file-burl"/>
<use x="0" y="4608" xlink:href="#fingerprint"/>
<use x="0" y="4632" xlink:href="#heading-big"/>
<use x="0" y="4656" xlink:href="#heading-medium"/>
<use x="0" y="4680" xlink:href="#heading-small"/>
<use x="0" y="4704" xlink:href="#hint"/>
<use x="0" y="4728" xlink:href="#file-markdown"/>
<use x="0" y="4752" xlink:href="#quote"/>

</svg>
